<mxfile host="app.diagrams.net" modified="2023-12-26T09:18:16.611Z" agent="Mozilla/5.0 (Macintosh; Intel Mac OS X 10_15_7) AppleWebKit/537.36 (KHTML, like Gecko) Chrome/119.0.0.0 Safari/537.36" etag="Zp40-x7bVQctWJcATsQ3" version="22.1.11" type="github">
  <diagram name="第 1 页" id="LyzLs8KSeAA5ORpxAnu4">
    <mxGraphModel dx="2074" dy="1125" grid="1" gridSize="10" guides="1" tooltips="1" connect="1" arrows="1" fold="1" page="1" pageScale="1" pageWidth="827" pageHeight="1169" math="0" shadow="0">
      <root>
        <mxCell id="0" />
        <mxCell id="1" parent="0" />
        <mxCell id="eee_U3IOTz9vt7lkL6su-33" style="edgeStyle=orthogonalEdgeStyle;rounded=0;orthogonalLoop=1;jettySize=auto;html=1;labelBackgroundColor=none;strokeColor=#A8201A;fontColor=default;sketch=1;curveFitting=1;jiggle=2;" edge="1" parent="1" source="eee_U3IOTz9vt7lkL6su-3" target="eee_U3IOTz9vt7lkL6su-30">
          <mxGeometry relative="1" as="geometry" />
        </mxCell>
        <mxCell id="eee_U3IOTz9vt7lkL6su-38" value="&lt;font style=&quot;font-size: 14px;&quot;&gt;查询元数据，query路由到对应的集群&lt;/font&gt;" style="edgeLabel;html=1;align=center;verticalAlign=middle;resizable=0;points=[];labelBackgroundColor=none;fontColor=#143642;rounded=0;sketch=1;curveFitting=1;jiggle=2;" vertex="1" connectable="0" parent="eee_U3IOTz9vt7lkL6su-33">
          <mxGeometry x="-0.12" y="2" relative="1" as="geometry">
            <mxPoint as="offset" />
          </mxGeometry>
        </mxCell>
        <mxCell id="eee_U3IOTz9vt7lkL6su-3" value="" style="swimlane;startSize=0;labelBackgroundColor=none;fillColor=#FAE5C7;strokeColor=#0F8B8D;fontColor=#143642;rounded=0;sketch=1;curveFitting=1;jiggle=2;" vertex="1" parent="1">
          <mxGeometry x="780" y="240" width="670" height="280" as="geometry" />
        </mxCell>
        <mxCell id="eee_U3IOTz9vt7lkL6su-4" value="&lt;span style=&quot;font-size: 18px;&quot;&gt;应用层&lt;/span&gt;" style="text;html=1;align=center;verticalAlign=middle;resizable=0;points=[];autosize=1;strokeColor=none;fillColor=none;labelBackgroundColor=none;fontColor=#143642;rounded=0;sketch=1;curveFitting=1;jiggle=2;" vertex="1" parent="eee_U3IOTz9vt7lkL6su-3">
          <mxGeometry x="270" y="20" width="80" height="40" as="geometry" />
        </mxCell>
        <mxCell id="eee_U3IOTz9vt7lkL6su-34" value="数据服务" style="ellipse;whiteSpace=wrap;html=1;aspect=fixed;labelBackgroundColor=none;fillColor=#FAE5C7;strokeColor=#0F8B8D;fontColor=#143642;rounded=0;sketch=1;curveFitting=1;jiggle=2;" vertex="1" parent="eee_U3IOTz9vt7lkL6su-3">
          <mxGeometry x="110" y="80" width="80" height="80" as="geometry" />
        </mxCell>
        <mxCell id="eee_U3IOTz9vt7lkL6su-35" value="BI" style="ellipse;whiteSpace=wrap;html=1;aspect=fixed;labelBackgroundColor=none;fillColor=#FAE5C7;strokeColor=#0F8B8D;fontColor=#143642;rounded=0;sketch=1;curveFitting=1;jiggle=2;" vertex="1" parent="eee_U3IOTz9vt7lkL6su-3">
          <mxGeometry x="500" y="80" width="80" height="80" as="geometry" />
        </mxCell>
        <mxCell id="eee_U3IOTz9vt7lkL6su-47" value="&lt;font style=&quot;font-size: 17px;&quot;&gt;目前应用场景只有wkd报表和自助查询BI系统，为了统一元数据抽象，&lt;br&gt;对用户不暴露数据到底存储在哪个集群，因此，这里需要结合&lt;br&gt;数据资源管理系统做相关查询的路由&lt;/font&gt;" style="text;html=1;align=left;verticalAlign=middle;resizable=0;points=[];autosize=1;strokeColor=none;fillColor=none;labelBackgroundColor=none;fontColor=#143642;rounded=0;sketch=1;curveFitting=1;jiggle=2;" vertex="1" parent="eee_U3IOTz9vt7lkL6su-3">
          <mxGeometry x="80" y="180" width="550" height="70" as="geometry" />
        </mxCell>
        <mxCell id="eee_U3IOTz9vt7lkL6su-32" style="rounded=0;orthogonalLoop=1;jettySize=auto;html=1;exitX=0.5;exitY=0;exitDx=0;exitDy=0;entryX=0.5;entryY=1;entryDx=0;entryDy=0;labelBackgroundColor=none;strokeColor=#A8201A;fontColor=default;sketch=1;curveFitting=1;jiggle=2;" edge="1" parent="1" source="eee_U3IOTz9vt7lkL6su-5" target="eee_U3IOTz9vt7lkL6su-30">
          <mxGeometry relative="1" as="geometry" />
        </mxCell>
        <mxCell id="eee_U3IOTz9vt7lkL6su-5" value="" style="swimlane;startSize=0;labelBackgroundColor=none;fillColor=#FAE5C7;strokeColor=#0F8B8D;fontColor=#143642;rounded=0;sketch=1;curveFitting=1;jiggle=2;" vertex="1" parent="1">
          <mxGeometry x="50" y="880" width="1410" height="300" as="geometry" />
        </mxCell>
        <mxCell id="eee_U3IOTz9vt7lkL6su-6" value="&lt;span style=&quot;font-size: 18px;&quot;&gt;存储层&lt;/span&gt;" style="text;html=1;align=center;verticalAlign=middle;resizable=0;points=[];autosize=1;strokeColor=none;fillColor=none;labelBackgroundColor=none;fontColor=#143642;rounded=0;sketch=1;curveFitting=1;jiggle=2;" vertex="1" parent="eee_U3IOTz9vt7lkL6su-5">
          <mxGeometry x="670" y="30" width="80" height="40" as="geometry" />
        </mxCell>
        <mxCell id="eee_U3IOTz9vt7lkL6su-11" value="clickhouse" style="shape=cylinder3;whiteSpace=wrap;html=1;boundedLbl=1;backgroundOutline=1;size=15;labelBackgroundColor=none;fillColor=#FAE5C7;strokeColor=#0F8B8D;fontColor=#143642;rounded=0;sketch=1;curveFitting=1;jiggle=2;" vertex="1" parent="eee_U3IOTz9vt7lkL6su-5">
          <mxGeometry x="810" y="60" width="170" height="80" as="geometry" />
        </mxCell>
        <mxCell id="eee_U3IOTz9vt7lkL6su-12" value="starrocks" style="shape=cylinder3;whiteSpace=wrap;html=1;boundedLbl=1;backgroundOutline=1;size=15;labelBackgroundColor=none;fillColor=#FAE5C7;strokeColor=#0F8B8D;fontColor=#143642;rounded=0;sketch=1;curveFitting=1;jiggle=2;" vertex="1" parent="eee_U3IOTz9vt7lkL6su-5">
          <mxGeometry x="1070" y="60" width="170" height="80" as="geometry" />
        </mxCell>
        <mxCell id="eee_U3IOTz9vt7lkL6su-13" value="" style="swimlane;startSize=0;labelBackgroundColor=none;fillColor=#FAE5C7;strokeColor=#0F8B8D;fontColor=#143642;rounded=0;sketch=1;curveFitting=1;jiggle=2;" vertex="1" parent="eee_U3IOTz9vt7lkL6su-5">
          <mxGeometry x="110" y="30" width="430" height="210" as="geometry" />
        </mxCell>
        <mxCell id="eee_U3IOTz9vt7lkL6su-9" value="oss" style="shape=cylinder3;whiteSpace=wrap;html=1;boundedLbl=1;backgroundOutline=1;size=15;labelBackgroundColor=none;fillColor=#FAE5C7;strokeColor=#0F8B8D;fontColor=#143642;rounded=0;sketch=1;curveFitting=1;jiggle=2;" vertex="1" parent="eee_U3IOTz9vt7lkL6su-13">
          <mxGeometry x="20" y="130" width="170" height="80" as="geometry" />
        </mxCell>
        <mxCell id="eee_U3IOTz9vt7lkL6su-10" value="cos" style="shape=cylinder3;whiteSpace=wrap;html=1;boundedLbl=1;backgroundOutline=1;size=15;labelBackgroundColor=none;fillColor=#FAE5C7;strokeColor=#0F8B8D;fontColor=#143642;rounded=0;sketch=1;curveFitting=1;jiggle=2;" vertex="1" parent="eee_U3IOTz9vt7lkL6su-13">
          <mxGeometry x="254" y="130" width="170" height="80" as="geometry" />
        </mxCell>
        <mxCell id="eee_U3IOTz9vt7lkL6su-16" value="&lt;font style=&quot;font-size: 14px;&quot;&gt;Alluxio&lt;/font&gt;" style="text;html=1;align=center;verticalAlign=middle;resizable=0;points=[];autosize=1;strokeColor=none;fillColor=none;labelBackgroundColor=none;fontColor=#143642;rounded=0;sketch=1;curveFitting=1;jiggle=2;" vertex="1" parent="eee_U3IOTz9vt7lkL6su-13">
          <mxGeometry x="170" y="18" width="60" height="30" as="geometry" />
        </mxCell>
        <mxCell id="eee_U3IOTz9vt7lkL6su-48" value="hive" style="shape=cylinder3;whiteSpace=wrap;html=1;boundedLbl=1;backgroundOutline=1;size=15;labelBackgroundColor=none;fillColor=#FAE5C7;strokeColor=#0F8B8D;fontColor=#143642;rounded=0;sketch=1;curveFitting=1;jiggle=2;" vertex="1" parent="eee_U3IOTz9vt7lkL6su-13">
          <mxGeometry x="20" y="20" width="400" height="80" as="geometry" />
        </mxCell>
        <mxCell id="eee_U3IOTz9vt7lkL6su-60" style="edgeStyle=orthogonalEdgeStyle;rounded=0;orthogonalLoop=1;jettySize=auto;html=1;shape=flexArrow;labelBackgroundColor=none;strokeColor=#A8201A;fontColor=default;sketch=1;curveFitting=1;jiggle=2;" edge="1" parent="eee_U3IOTz9vt7lkL6su-13" source="eee_U3IOTz9vt7lkL6su-9">
          <mxGeometry relative="1" as="geometry">
            <mxPoint x="105" y="100" as="targetPoint" />
          </mxGeometry>
        </mxCell>
        <mxCell id="eee_U3IOTz9vt7lkL6su-63" style="edgeStyle=orthogonalEdgeStyle;rounded=0;orthogonalLoop=1;jettySize=auto;html=1;entryX=0.798;entryY=1;entryDx=0;entryDy=0;entryPerimeter=0;shape=flexArrow;labelBackgroundColor=none;strokeColor=#A8201A;fontColor=default;sketch=1;curveFitting=1;jiggle=2;" edge="1" parent="eee_U3IOTz9vt7lkL6su-13" source="eee_U3IOTz9vt7lkL6su-10" target="eee_U3IOTz9vt7lkL6su-48">
          <mxGeometry relative="1" as="geometry" />
        </mxCell>
        <mxCell id="eee_U3IOTz9vt7lkL6su-40" value="&lt;div style=&quot;text-align: left; font-size: 16px;&quot;&gt;&lt;span style=&quot;background-color: initial;&quot;&gt;&lt;font style=&quot;font-size: 16px;&quot;&gt;存储层包含基础的阿里云oss存储和腾讯云cos&lt;/font&gt;&lt;/span&gt;&lt;/div&gt;&lt;div style=&quot;text-align: left; font-size: 16px;&quot;&gt;&lt;span style=&quot;background-color: initial;&quot;&gt;&lt;font style=&quot;font-size: 16px;&quot;&gt;存储，这两者通过alluxio提供统一的对象存储视图，&lt;/font&gt;&lt;/span&gt;&lt;/div&gt;&lt;div style=&quot;text-align: left; font-size: 16px;&quot;&gt;&lt;span style=&quot;background-color: initial;&quot;&gt;&lt;font style=&quot;font-size: 16px;&quot;&gt;clickhouse和starrocks腾讯云和阿里云都需要配置集群&lt;/font&gt;&lt;/span&gt;&lt;/div&gt;" style="text;html=1;align=center;verticalAlign=middle;resizable=0;points=[];autosize=1;strokeColor=none;fillColor=none;labelBackgroundColor=none;fontColor=#143642;rounded=0;sketch=1;curveFitting=1;jiggle=2;" vertex="1" parent="eee_U3IOTz9vt7lkL6su-5">
          <mxGeometry x="920" y="190" width="400" height="70" as="geometry" />
        </mxCell>
        <mxCell id="eee_U3IOTz9vt7lkL6su-7" value="" style="swimlane;startSize=0;labelBackgroundColor=none;fillColor=#FAE5C7;strokeColor=#0F8B8D;fontColor=#143642;rounded=0;sketch=1;curveFitting=1;jiggle=2;" vertex="1" parent="1">
          <mxGeometry x="50" y="490" width="670" height="280" as="geometry" />
        </mxCell>
        <mxCell id="eee_U3IOTz9vt7lkL6su-8" value="&lt;span style=&quot;font-size: 18px;&quot;&gt;业务层&lt;/span&gt;" style="text;html=1;align=center;verticalAlign=middle;resizable=0;points=[];autosize=1;strokeColor=none;fillColor=none;labelBackgroundColor=none;fontColor=#143642;rounded=0;sketch=1;curveFitting=1;jiggle=2;" vertex="1" parent="eee_U3IOTz9vt7lkL6su-7">
          <mxGeometry x="290" y="30" width="80" height="40" as="geometry" />
        </mxCell>
        <mxCell id="eee_U3IOTz9vt7lkL6su-21" value="" style="swimlane;startSize=0;labelBackgroundColor=none;fillColor=#FAE5C7;strokeColor=#0F8B8D;fontColor=#143642;rounded=0;sketch=1;curveFitting=1;jiggle=2;" vertex="1" parent="eee_U3IOTz9vt7lkL6su-7">
          <mxGeometry x="50" y="40" width="200" height="200" as="geometry" />
        </mxCell>
        <mxCell id="eee_U3IOTz9vt7lkL6su-51" value="spark on k8s处理写入hive on orc" style="rhombus;whiteSpace=wrap;html=1;labelBackgroundColor=none;fillColor=#FAE5C7;strokeColor=#0F8B8D;fontColor=#143642;rounded=0;sketch=1;curveFitting=1;jiggle=2;" vertex="1" parent="eee_U3IOTz9vt7lkL6su-21">
          <mxGeometry x="30" y="30" width="130" height="130" as="geometry" />
        </mxCell>
        <mxCell id="eee_U3IOTz9vt7lkL6su-22" value="" style="swimlane;startSize=0;labelBackgroundColor=none;fillColor=#FAE5C7;strokeColor=#0F8B8D;fontColor=#143642;rounded=0;sketch=1;curveFitting=1;jiggle=2;" vertex="1" parent="eee_U3IOTz9vt7lkL6su-7">
          <mxGeometry x="410" y="40" width="200" height="200" as="geometry" />
        </mxCell>
        <mxCell id="eee_U3IOTz9vt7lkL6su-54" value="flink准实时处理写入hive on&amp;nbsp; paimon" style="rhombus;whiteSpace=wrap;html=1;labelBackgroundColor=none;fillColor=#FAE5C7;strokeColor=#0F8B8D;fontColor=#143642;rounded=0;sketch=1;curveFitting=1;jiggle=2;" vertex="1" parent="eee_U3IOTz9vt7lkL6su-22">
          <mxGeometry x="35" y="35" width="130" height="130" as="geometry" />
        </mxCell>
        <mxCell id="eee_U3IOTz9vt7lkL6su-26" style="rounded=0;orthogonalLoop=1;jettySize=auto;html=1;exitX=0.5;exitY=1;exitDx=0;exitDy=0;entryX=0.5;entryY=0;entryDx=0;entryDy=0;entryPerimeter=0;labelBackgroundColor=none;strokeColor=#A8201A;fontColor=default;sketch=1;curveFitting=1;jiggle=2;" edge="1" parent="1" source="eee_U3IOTz9vt7lkL6su-22" target="eee_U3IOTz9vt7lkL6su-9">
          <mxGeometry relative="1" as="geometry">
            <mxPoint x="270" y="1050" as="targetPoint" />
          </mxGeometry>
        </mxCell>
        <mxCell id="eee_U3IOTz9vt7lkL6su-28" value="&lt;font style=&quot;font-size: 14px;&quot;&gt;腾讯云回写数据到阿里云&lt;/font&gt;" style="edgeLabel;html=1;align=center;verticalAlign=middle;resizable=0;points=[];labelBackgroundColor=none;fontColor=#143642;rounded=0;sketch=1;curveFitting=1;jiggle=2;" vertex="1" connectable="0" parent="eee_U3IOTz9vt7lkL6su-26">
          <mxGeometry x="-0.1784" y="-3" relative="1" as="geometry">
            <mxPoint y="1" as="offset" />
          </mxGeometry>
        </mxCell>
        <mxCell id="eee_U3IOTz9vt7lkL6su-27" style="rounded=0;orthogonalLoop=1;jettySize=auto;html=1;exitX=0.5;exitY=1;exitDx=0;exitDy=0;entryX=0.5;entryY=0;entryDx=0;entryDy=0;entryPerimeter=0;labelBackgroundColor=none;strokeColor=#A8201A;fontColor=default;sketch=1;curveFitting=1;jiggle=2;" edge="1" parent="1" source="eee_U3IOTz9vt7lkL6su-21" target="eee_U3IOTz9vt7lkL6su-48">
          <mxGeometry relative="1" as="geometry">
            <mxPoint x="265" y="1040" as="targetPoint" />
          </mxGeometry>
        </mxCell>
        <mxCell id="eee_U3IOTz9vt7lkL6su-30" value="" style="swimlane;startSize=0;labelBackgroundColor=none;fillColor=#FAE5C7;strokeColor=#0F8B8D;fontColor=#143642;rounded=0;sketch=1;curveFitting=1;jiggle=2;" vertex="1" parent="1">
          <mxGeometry x="775" y="620" width="680" height="130" as="geometry" />
        </mxCell>
        <mxCell id="eee_U3IOTz9vt7lkL6su-31" value="&lt;span style=&quot;font-size: 14px;&quot;&gt;数据资源管理：&lt;/span&gt;&lt;font style=&quot;border-color: var(--border-color); font-size: 14px;&quot;&gt;统一资源管理，表元数据，生命&lt;/font&gt;周期，分区所在位置等" style="text;html=1;align=center;verticalAlign=middle;resizable=0;points=[];autosize=1;strokeColor=none;fillColor=none;labelBackgroundColor=none;fontColor=#143642;rounded=0;sketch=1;curveFitting=1;jiggle=2;" vertex="1" parent="eee_U3IOTz9vt7lkL6su-30">
          <mxGeometry x="111" y="50" width="440" height="30" as="geometry" />
        </mxCell>
        <mxCell id="eee_U3IOTz9vt7lkL6su-42" style="edgeStyle=orthogonalEdgeStyle;rounded=0;orthogonalLoop=1;jettySize=auto;html=1;entryX=0.5;entryY=0;entryDx=0;entryDy=0;curved=1;labelBackgroundColor=none;strokeColor=#A8201A;fontColor=default;sketch=1;curveFitting=1;jiggle=2;" edge="1" parent="1" source="eee_U3IOTz9vt7lkL6su-41" target="eee_U3IOTz9vt7lkL6su-21">
          <mxGeometry relative="1" as="geometry" />
        </mxCell>
        <mxCell id="eee_U3IOTz9vt7lkL6su-44" value="业务1" style="edgeLabel;html=1;align=center;verticalAlign=middle;resizable=0;points=[];labelBackgroundColor=none;fontColor=#143642;rounded=0;sketch=1;curveFitting=1;jiggle=2;" vertex="1" connectable="0" parent="eee_U3IOTz9vt7lkL6su-42">
          <mxGeometry x="0.0642" y="39" relative="1" as="geometry">
            <mxPoint as="offset" />
          </mxGeometry>
        </mxCell>
        <mxCell id="eee_U3IOTz9vt7lkL6su-43" style="edgeStyle=orthogonalEdgeStyle;rounded=0;orthogonalLoop=1;jettySize=auto;html=1;curved=1;labelBackgroundColor=none;strokeColor=#A8201A;fontColor=default;sketch=1;curveFitting=1;jiggle=2;" edge="1" parent="1" source="eee_U3IOTz9vt7lkL6su-41" target="eee_U3IOTz9vt7lkL6su-22">
          <mxGeometry relative="1" as="geometry" />
        </mxCell>
        <mxCell id="eee_U3IOTz9vt7lkL6su-45" value="业务2" style="edgeLabel;html=1;align=center;verticalAlign=middle;resizable=0;points=[];labelBackgroundColor=none;fontColor=#143642;rounded=0;sketch=1;curveFitting=1;jiggle=2;" vertex="1" connectable="0" parent="eee_U3IOTz9vt7lkL6su-43">
          <mxGeometry x="0.104" y="-26" relative="1" as="geometry">
            <mxPoint as="offset" />
          </mxGeometry>
        </mxCell>
        <mxCell id="eee_U3IOTz9vt7lkL6su-41" value="Actor" style="shape=umlActor;verticalLabelPosition=bottom;verticalAlign=top;html=1;outlineConnect=0;labelBackgroundColor=none;fillColor=#FAE5C7;strokeColor=#0F8B8D;fontColor=#143642;rounded=0;sketch=1;curveFitting=1;jiggle=2;" vertex="1" parent="1">
          <mxGeometry x="360" y="150" width="30" height="60" as="geometry" />
        </mxCell>
        <mxCell id="eee_U3IOTz9vt7lkL6su-46" value="&lt;font style=&quot;font-size: 17px;&quot;&gt;拆分业务场景，腾讯云会优先&lt;br&gt;部署一些底层画像和实验系统&lt;br&gt;不依赖的业务&lt;/font&gt;" style="text;html=1;align=left;verticalAlign=middle;resizable=0;points=[];autosize=1;strokeColor=none;fillColor=none;labelBackgroundColor=none;fontColor=#143642;rounded=0;sketch=1;curveFitting=1;jiggle=2;" vertex="1" parent="1">
          <mxGeometry x="270" y="300" width="240" height="70" as="geometry" />
        </mxCell>
        <mxCell id="eee_U3IOTz9vt7lkL6su-55" value="&lt;font style=&quot;font-size: 30px;&quot;&gt;阿里云&lt;/font&gt;" style="text;html=1;align=center;verticalAlign=middle;resizable=0;points=[];autosize=1;strokeColor=none;fillColor=none;labelBackgroundColor=none;fontColor=#143642;rounded=0;sketch=1;curveFitting=1;jiggle=2;" vertex="1" parent="1">
          <mxGeometry x="95" y="158" width="110" height="50" as="geometry" />
        </mxCell>
        <mxCell id="eee_U3IOTz9vt7lkL6su-56" value="&lt;font style=&quot;font-size: 30px;&quot;&gt;腾讯云&lt;/font&gt;" style="text;html=1;align=center;verticalAlign=middle;resizable=0;points=[];autosize=1;strokeColor=none;fillColor=none;labelBackgroundColor=none;fontColor=#143642;rounded=0;sketch=1;curveFitting=1;jiggle=2;" vertex="1" parent="1">
          <mxGeometry x="550" y="155" width="110" height="50" as="geometry" />
        </mxCell>
        <mxCell id="eee_U3IOTz9vt7lkL6su-57" value="" style="endArrow=none;html=1;rounded=0;strokeColor=#A8201A;labelBackgroundColor=none;fontColor=default;sketch=1;curveFitting=1;jiggle=2;" edge="1" parent="1">
          <mxGeometry width="50" height="50" relative="1" as="geometry">
            <mxPoint x="380" y="1240" as="sourcePoint" />
            <mxPoint x="370" y="30" as="targetPoint" />
            <Array as="points">
              <mxPoint x="380" y="640" />
            </Array>
          </mxGeometry>
        </mxCell>
        <mxCell id="eee_U3IOTz9vt7lkL6su-58" style="rounded=0;orthogonalLoop=1;jettySize=auto;html=1;exitX=0.5;exitY=1;exitDx=0;exitDy=0;entryX=0.483;entryY=-0.062;entryDx=0;entryDy=0;entryPerimeter=0;labelBackgroundColor=none;strokeColor=#A8201A;fontColor=default;sketch=1;curveFitting=1;jiggle=2;" edge="1" parent="1" source="eee_U3IOTz9vt7lkL6su-22" target="eee_U3IOTz9vt7lkL6su-48">
          <mxGeometry relative="1" as="geometry" />
        </mxCell>
        <mxCell id="eee_U3IOTz9vt7lkL6su-64" value="&lt;div style=&quot;text-align: left; font-size: 17px;&quot;&gt;&lt;span style=&quot;background-color: initial;&quot;&gt;&lt;font style=&quot;font-size: 17px;&quot;&gt;回滚方案：&lt;/font&gt;&lt;/span&gt;&lt;/div&gt;&lt;div style=&quot;text-align: left; font-size: 17px;&quot;&gt;&lt;span style=&quot;background-color: initial;&quot;&gt;&lt;font style=&quot;font-size: 17px;&quot;&gt;1. 前期整体以阿里云为主，腾讯云的流量会写回阿里云去，并且腾讯云也要并行跑，这部分流量需要测算峰值带宽，腾讯云这边解决流量费用问题&lt;/font&gt;&lt;/span&gt;&lt;/div&gt;&lt;div style=&quot;text-align: left; font-size: 17px;&quot;&gt;&lt;span style=&quot;background-color: initial;&quot;&gt;&lt;font style=&quot;font-size: 17px;&quot;&gt;2. 等腾讯云这边跑稳定以后，阿里云这边业务流程会置为空跑，腾讯云这边流量停止写入阿里云，对应下游服务切到腾讯云&lt;/font&gt;&lt;/span&gt;&lt;/div&gt;&lt;div style=&quot;text-align: left; font-size: 17px;&quot;&gt;&lt;span style=&quot;background-color: initial;&quot;&gt;&lt;font style=&quot;font-size: 17px;&quot;&gt;3. 假设腾讯云这边业务流程出了问题，可以通过脚本将数据回写到oss并将之前空跑的流程修改为正常调用即可无损切回阿里云&lt;/font&gt;&lt;/span&gt;&lt;/div&gt;" style="text;html=1;align=center;verticalAlign=middle;resizable=0;points=[];autosize=1;strokeColor=none;fillColor=none;labelBackgroundColor=none;fontColor=#143642;rounded=0;sketch=1;curveFitting=1;jiggle=2;" vertex="1" parent="1">
          <mxGeometry x="40" y="1280" width="1110" height="100" as="geometry" />
        </mxCell>
      </root>
    </mxGraphModel>
  </diagram>
</mxfile>
